<svg width="29" height="28" viewBox="0 0 29 28" fill="none" xmlns="http://www.w3.org/2000/svg">
<path d="M6.76952 9.92378C5.21734 11.9173 5.24343 15.4629 7.22821 17.2173C9.48038 19.2107 12.6478 19.1912 14.6413 17.3564C17.0304 15.1586 16.8934 11.4977 14.7804 9.42596C12.6565 7.34118 8.86082 7.23248 6.76952 9.92378Z" fill="#FCC11A"/>
<path d="M9.26118 9.23843C8.64814 8.96669 7.9764 9.70582 7.68292 10.2123C7.38945 10.7189 7.11771 11.7123 7.74162 11.9645C8.36553 12.2167 8.81336 11.7884 9.26118 11.0493C9.70901 10.3102 9.96118 9.55148 9.26118 9.23843Z" fill="#FEE269"/>
<path d="M10.8588 6.45946C10.711 6.73772 10.761 6.95076 11.0545 7.0225C11.3501 7.09207 13.1893 7.39207 13.3436 7.40076C13.5675 7.41381 13.6523 7.24642 13.624 7.04859C13.5958 6.85294 13.1458 4.09859 13.1045 3.84424C13.0632 3.59207 12.7958 3.33772 12.5414 3.67468C12.2914 4.01598 10.9697 6.24859 10.8588 6.45946ZM15.6219 8.37033C15.3327 8.45946 15.3414 8.63772 15.4958 8.86163C15.6501 9.08555 16.7175 10.716 16.8175 10.829C16.9175 10.9421 17.0849 10.9703 17.224 10.8008C17.3632 10.6312 19.1197 8.1725 19.2479 8.01815C19.4588 7.76598 19.3327 7.49859 19.0088 7.58337C18.761 7.64859 15.8045 8.31598 15.6219 8.37033ZM4.66317 15.8464C4.85882 15.5225 5.11317 15.6073 5.29577 15.916C5.42186 16.1268 6.47621 17.5464 6.57404 17.7008C6.67186 17.8551 6.71534 18.1508 6.40447 18.2203C6.09577 18.2899 3.58056 18.9508 3.18708 19.0203C2.7936 19.0899 2.56969 18.7812 2.82186 18.4442C2.96969 18.2486 4.55012 16.029 4.66317 15.8464ZM4.12838 13.4008C4.48708 13.5616 4.65664 13.5029 4.73273 13.2464C4.83056 12.9095 5.12621 11.3638 5.13925 11.0116C5.14795 10.7834 5.05447 10.5616 4.70447 10.6182C4.3523 10.6747 1.82404 11.0247 1.50012 11.1377C1.12404 11.2682 1.1523 11.6812 1.4023 11.8116C1.69795 11.9682 3.87621 13.2877 4.12838 13.4008ZM8.49795 7.50076C8.70012 7.33989 8.63925 7.10728 8.45665 6.9812C8.27404 6.85511 6.01751 5.2225 5.73056 5.00076C5.47838 4.80511 5.16751 4.87468 5.2523 5.32468C5.31317 5.64641 6.03273 8.4725 6.08056 8.66815C6.13708 8.89207 6.30447 9.00511 6.5023 8.86381C6.70012 8.7225 8.28708 7.66815 8.49795 7.50076Z" fill="#FFA722"/>
<path d="M24.0742 17.7353C24.0742 17.7353 24.3894 11.5505 19.3829 10.344C14.3764 9.13745 12.9177 13.994 12.9177 13.994C12.9177 13.994 11.2481 13.6048 9.70031 14.8918C8.4851 15.9027 8.31336 17.4201 8.31336 17.4201C8.31336 17.4201 6.71553 17.1766 5.3851 18.4679C4.42205 19.4027 4.51553 20.6027 4.51553 20.6027L6.45466 22.307L26.1612 21.7744L27.1981 20.6614C27.1981 20.6614 27.3634 19.4266 26.2112 18.4983C25.059 17.5679 24.0742 17.7353 24.0742 17.7353Z" fill="#E2EBEE"/>
<path d="M9.18517 20.1362C9.18517 20.1362 9.96995 21.0232 12.4591 20.9645C14.9482 20.9058 15.6026 20.2536 15.6026 20.2536C15.6026 20.2536 16.6939 21.3993 19.8482 21.1558C23.0026 20.9123 23.9091 20.2471 23.9091 20.2471C23.9091 20.2471 24.6786 20.7971 25.6526 20.8123C26.6243 20.8275 27.1982 20.658 27.1982 20.658C27.1982 20.658 27.096 21.4319 26.7569 21.9275C26.4178 22.4232 25.8526 22.8014 24.9591 22.7949C24.0634 22.7884 21.3417 22.8123 18.5786 22.808C15.8156 22.8036 7.91995 22.8493 6.75256 22.7993C5.86343 22.7623 5.21778 22.2384 4.91995 21.7949C4.44386 21.0862 4.52212 20.3384 4.52212 20.3384C4.52212 20.3384 5.41778 21.0406 6.62647 20.9884C8.27865 20.9188 9.18517 20.1362 9.18517 20.1362Z" fill="#B9CED3"/>
</svg>
