<svg width="14" height="16" viewBox="0 0 14 16" fill="none" xmlns="http://www.w3.org/2000/svg">
<path d="M2.6155 15.8845C2.17117 15.8845 1.79083 15.7263 1.4745 15.41C1.15817 15.0937 1 14.7133 1 14.269V1.88448H0.5C0.358333 1.88448 0.239583 1.83648 0.14375 1.74048C0.0479167 1.64448 0 1.52557 0 1.38373C0 1.2419 0.0479167 1.12323 0.14375 1.02773C0.239583 0.932234 0.358333 0.884485 0.5 0.884485H4C4 0.678152 4.07658 0.498318 4.22975 0.344984C4.38292 0.191818 4.56275 0.115234 4.76925 0.115234H9.23075C9.43725 0.115234 9.61708 0.191818 9.77025 0.344984C9.92342 0.498318 10 0.678152 10 0.884485H13.5C13.6417 0.884485 13.7604 0.932485 13.8562 1.02849C13.9521 1.12449 14 1.2434 14 1.38524C14 1.52707 13.9521 1.64574 13.8562 1.74124C13.7604 1.83674 13.6417 1.88448 13.5 1.88448H13V14.269C13 14.7133 12.8418 15.0937 12.5255 15.41C12.2092 15.7263 11.8288 15.8845 11.3845 15.8845H2.6155ZM12 1.88448H2V14.269C2 14.4485 2.05767 14.596 2.173 14.7115C2.2885 14.8268 2.436 14.8845 2.6155 14.8845H11.3845C11.564 14.8845 11.7115 14.8268 11.827 14.7115C11.9423 14.596 12 14.4485 12 14.269V1.88448ZM5.30825 12.8845C5.45025 12.8845 5.569 12.8366 5.6645 12.7407C5.76 12.6449 5.80775 12.5262 5.80775 12.3845V4.38448C5.80775 4.24282 5.75975 4.12407 5.66375 4.02823C5.56775 3.9324 5.44883 3.88449 5.307 3.88449C5.16517 3.88449 5.0465 3.9324 4.951 4.02823C4.8555 4.12407 4.80775 4.24282 4.80775 4.38448V12.3845C4.80775 12.5262 4.85575 12.6449 4.95175 12.7407C5.04758 12.8366 5.16642 12.8845 5.30825 12.8845ZM8.693 12.8845C8.83483 12.8845 8.9535 12.8366 9.049 12.7407C9.1445 12.6449 9.19225 12.5262 9.19225 12.3845V4.38448C9.19225 4.24282 9.14425 4.12407 9.04825 4.02823C8.95242 3.9324 8.83358 3.88449 8.69175 3.88449C8.54975 3.88449 8.431 3.9324 8.3355 4.02823C8.24 4.12407 8.19225 4.24282 8.19225 4.38448V12.3845C8.19225 12.5262 8.24025 12.6449 8.33625 12.7407C8.43225 12.8366 8.55117 12.8845 8.693 12.8845Z" fill="#882620"/>
</svg>
