<svg width="28" height="28" viewBox="0 0 28 28" fill="none" xmlns="http://www.w3.org/2000/svg">
<rect x="0.7" y="0.7" width="26.6" height="26.6" rx="5.3" stroke="#003C44" stroke-width="1.4"/>
<path d="M7 17C6.85833 17 6.73958 16.952 6.64375 16.856C6.54792 16.76 6.5 16.6411 6.5 16.4993C6.5 16.3574 6.54792 16.2388 6.64375 16.1433C6.73958 16.0478 6.85833 16 7 16H13C13.1417 16 13.2604 16.048 13.3563 16.144C13.4521 16.24 13.5 16.3589 13.5 16.5008C13.5 16.6426 13.4521 16.7612 13.3563 16.8567C13.2604 16.9522 13.1417 17 13 17H7ZM7 13C6.85833 13 6.73958 12.952 6.64375 12.856C6.54792 12.76 6.5 12.6411 6.5 12.4992C6.5 12.3574 6.54792 12.2387 6.64375 12.1432C6.73958 12.0477 6.85833 12 7 12H17C17.1417 12 17.2604 12.048 17.3562 12.144C17.4521 12.24 17.5 12.3589 17.5 12.5008C17.5 12.6426 17.4521 12.7613 17.3562 12.8568C17.2604 12.9523 17.1417 13 17 13H7ZM7 9C6.85833 9 6.73958 8.952 6.64375 8.856C6.54792 8.76 6.5 8.64108 6.5 8.49925C6.5 8.35742 6.54792 8.23875 6.64375 8.14325C6.73958 8.04775 6.85833 8 7 8H17C17.1417 8 17.2604 8.048 17.3562 8.144C17.4521 8.24 17.5 8.35892 17.5 8.50075C17.5 8.64258 17.4521 8.76125 17.3562 8.85675C17.2604 8.95225 17.1417 9 17 9H7ZM14.7308 21.1923V20.1193C14.7308 20.0171 14.7493 19.9182 14.7865 19.8225C14.8237 19.7267 14.8858 19.6352 14.973 19.548L20.0635 14.4827C20.1622 14.3839 20.264 14.3173 20.369 14.2828C20.474 14.2481 20.579 14.2308 20.684 14.2308C20.7985 14.2308 20.911 14.2523 21.0215 14.2952C21.1322 14.3381 21.2327 14.4025 21.323 14.4885L22.248 15.4328C22.3302 15.5314 22.3927 15.634 22.4355 15.7405C22.4785 15.8468 22.5 15.9532 22.5 16.0595C22.5 16.166 22.4795 16.2734 22.4385 16.3818C22.3975 16.4901 22.334 16.5936 22.248 16.6923L17.1827 21.7578C17.0956 21.8449 17.0041 21.9071 16.9083 21.9443C16.8126 21.9814 16.7137 22 16.6115 22H15.5385C15.3097 22 15.1178 21.9226 14.963 21.7678C14.8082 21.6129 14.7308 21.4211 14.7308 21.1923ZM15.6155 21.1155H16.5655L20.0328 17.6423L19.5635 17.1673L19.1077 16.6788L15.6155 20.1655V21.1155ZM19.5635 17.1673L19.1077 16.6788L20.0328 17.6423L19.5635 17.1673Z" fill="#003C44"/>
</svg>
