<svg width="14" height="16" viewBox="0 0 14 16" fill="none" xmlns="http://www.w3.org/2000/svg">
<path d="M1 15H4.69225V9.92298C4.69225 9.69415 4.76967 9.50231 4.9245 9.34748C5.07933 9.19281 5.27117 9.11548 5.5 9.11548H8.5C8.72883 9.11548 8.92067 9.19281 9.0755 9.34748C9.23033 9.50231 9.30775 9.69415 9.30775 9.92298V15H13V6.30773C13 6.20506 12.9776 6.11206 12.9327 6.02873C12.8879 5.9454 12.827 5.87173 12.75 5.80773L7.3655 1.74998C7.26283 1.66031 7.141 1.61548 7 1.61548C6.859 1.61548 6.73717 1.66031 6.6345 1.74998L1.25 5.80773C1.173 5.87173 1.11208 5.9454 1.06725 6.02873C1.02242 6.11206 1 6.20506 1 6.30773V15ZM0 15V6.30773C0 6.0519 0.0572499 5.80956 0.17175 5.58073C0.286083 5.35189 0.44425 5.16348 0.64625 5.01548L6.03075 0.938478C6.31258 0.723145 6.63467 0.615479 6.997 0.615479C7.35933 0.615479 7.68342 0.723145 7.96925 0.938478L13.3538 5.01548C13.5558 5.16348 13.7139 5.35189 13.8282 5.58073C13.9427 5.80956 14 6.0519 14 6.30773V15C14 15.268 13.9003 15.5016 13.701 15.701C13.5017 15.9003 13.268 16 13 16H9.1155C8.8865 16 8.69467 15.9226 8.54 15.7677C8.38517 15.6129 8.30775 15.4211 8.30775 15.1922V10.1155H5.69225V15.1922C5.69225 15.4211 5.61483 15.6129 5.46 15.7677C5.30533 15.9226 5.1135 16 4.8845 16H1C0.732 16 0.498334 15.9003 0.299 15.701C0.0996668 15.5016 0 15.268 0 15Z" fill="#202020"/>
</svg>
