<svg width="14" height="16" viewBox="0 0 14 16" fill="none" xmlns="http://www.w3.org/2000/svg">
<path d="M0 15.0002V6.30797C0 6.05214 0.0572499 5.80981 0.17175 5.58097C0.286083 5.35214 0.44425 5.16372 0.64625 5.01572L6.03075 0.938722C6.31258 0.723389 6.63467 0.615723 6.997 0.615723C7.35933 0.615723 7.68342 0.723389 7.96925 0.938722L13.3538 5.01572C13.5558 5.16372 13.7139 5.35214 13.8282 5.58097C13.9427 5.80981 14 6.05214 14 6.30797V15.0002C14 15.2682 13.9003 15.5019 13.701 15.7012C13.5017 15.9006 13.268 16.0002 13 16.0002H9.6155C9.3865 16.0002 9.19467 15.9228 9.04 15.768C8.88517 15.6131 8.80775 15.4213 8.80775 15.1925V10.4232C8.80775 10.1944 8.73033 10.0026 8.5755 9.84772C8.42067 9.69306 8.22883 9.61572 8 9.61572H6C5.77117 9.61572 5.57933 9.69306 5.4245 9.84772C5.26967 10.0026 5.19225 10.1944 5.19225 10.4232V15.1925C5.19225 15.4213 5.11483 15.6131 4.96 15.768C4.80533 15.9228 4.6135 16.0002 4.3845 16.0002H1C0.732 16.0002 0.498334 15.9006 0.299 15.7012C0.0996668 15.5019 0 15.2682 0 15.0002Z" fill="#003C44"/>
</svg>
