<svg width="24" height="24" viewBox="0 0 24 24" fill="none" xmlns="http://www.w3.org/2000/svg">
<path d="M5.6155 20C5.15517 20 4.77083 19.8458 4.4625 19.5375C4.15417 19.2292 4 18.8448 4 18.3845V5.6155C4 5.15517 4.15417 4.77083 4.4625 4.4625C4.77083 4.15417 5.15517 4 5.6155 4H11.5192C11.6616 4 11.7805 4.04775 11.876 4.14325C11.9715 4.23875 12.0192 4.35767 12.0192 4.5C12.0192 4.64233 11.9715 4.76125 11.876 4.85675C11.7805 4.95225 11.6616 5 11.5192 5H5.6155C5.4615 5 5.32042 5.06408 5.19225 5.19225C5.06408 5.32042 5 5.4615 5 5.6155V18.3845C5 18.5385 5.06408 18.6796 5.19225 18.8077C5.32042 18.9359 5.4615 19 5.6155 19H11.5192C11.6616 19 11.7805 19.0477 11.876 19.1432C11.9715 19.2387 12.0192 19.3577 12.0192 19.5C12.0192 19.6423 11.9715 19.7613 11.876 19.8568C11.7805 19.9523 11.6616 20 11.5192 20H5.6155ZM18.0595 12.5H9.69225C9.54992 12.5 9.431 12.4522 9.3355 12.3567C9.24 12.2612 9.19225 12.1423 9.19225 12C9.19225 11.8577 9.24 11.7388 9.3355 11.6433C9.431 11.5478 9.54992 11.5 9.69225 11.5H18.0595L16.0885 9.52875C15.9948 9.43525 15.9448 9.3225 15.9385 9.1905C15.932 9.05833 15.982 8.93717 16.0885 8.827C16.1948 8.71667 16.3127 8.66058 16.4423 8.65875C16.5718 8.65675 16.6917 8.71092 16.802 8.82125L19.4155 11.4345C19.577 11.5962 19.6578 11.7847 19.6578 12C19.6578 12.2153 19.577 12.4038 19.4155 12.5655L16.802 15.1788C16.7045 15.2762 16.5887 15.3272 16.4548 15.3317C16.3208 15.3363 16.1987 15.2833 16.0885 15.173C15.982 15.0628 15.9298 14.9439 15.9318 14.8162C15.9336 14.6888 15.9878 14.5718 16.0943 14.4655L18.0595 12.5Z" fill="#202020"/>
</svg>
