<svg width="148" height="36" viewBox="0 0 148 36" fill="none" xmlns="http://www.w3.org/2000/svg">
<path d="M96.3614 34.1294H91.4081V32.962H96.3614V34.1294ZM94.0898 29.3023L91.7867 35.4544H89.9253L92.7648 28.4189H95.4149L98.2544 35.4544H96.393L94.0898 29.3023ZM111.631 9.7099C111.631 8.57411 111.19 7.78537 109.77 7.78537C108.35 7.78537 107.909 8.57411 107.909 9.7099V21.5726C107.909 22.7084 108.35 23.4971 109.77 23.4971C111.19 23.4971 111.631 22.7084 111.631 21.5726V9.7099ZM138.322 9.7099C138.322 8.57411 137.881 7.78537 136.461 7.78537C135.041 7.78537 134.6 8.57411 134.6 9.7099V17.6604C134.6 19.3957 133.022 20.9416 131.287 20.9416C129.552 20.9416 128.921 19.7112 128.921 18.039V9.7099C128.921 8.57411 128.479 7.78537 127.059 7.78537C125.64 7.78537 125.198 8.57411 125.198 9.7099V18.6385C125.198 21.7934 126.712 23.5918 129.804 23.5602C132.233 23.5287 133.874 22.456 135.294 20.3106L134.663 20.4683V25.6425C134.663 28.0403 133.338 29.1761 131.382 29.1761C130.183 29.1761 129.415 28.5791 128.7 27.5355C128.412 27.1165 127.974 26.7783 127.312 26.7783C126.523 26.7783 125.923 27.3462 125.923 28.1665C125.923 29.8071 127.596 31.2268 131.192 31.2268C135.546 31.2268 138.322 28.6397 138.322 23.6233V9.7099ZM100.21 21.5726C100.21 22.7084 100.652 23.4971 102.072 23.4971C103.492 23.4971 103.933 22.7084 103.933 21.5726V12.6125C103.933 9.4575 102.419 7.65917 99.3271 7.69072C96.8978 7.72227 95.0679 8.79496 93.6481 10.9403L94.2791 11.666V10.6248C94.3107 9.3944 93.7743 7.78537 92.1969 7.78537C91.2188 7.78537 90.6194 8.16397 90.6194 9.3944V21.5726C90.6194 22.7084 91.0611 23.4971 92.4808 23.4971C93.9005 23.4971 94.3422 22.7084 94.3422 21.5726V13.5905C94.3422 11.8553 96.109 10.3093 97.8443 10.3093C99.5795 10.3093 100.21 11.5398 100.21 13.2119V21.5726ZM119.771 10.0885H122.106C122.926 10.0885 123.463 9.6468 123.463 8.98426C123.463 8.32171 122.989 8.00622 122.138 8.00622H119.803L119.771 10.0885ZM115.197 10.0885H117.058L117.121 8.00622H115.197C114.502 8.00622 113.903 8.32171 113.903 9.04736C113.903 9.773 114.502 10.0885 115.197 10.0885ZM109.707 6.23944C111.064 6.23944 111.947 5.29294 111.947 4.03096C111.947 2.76897 111.064 1.82248 109.707 1.82248C108.35 1.82248 107.467 2.76897 107.467 4.03096C107.467 5.29294 108.35 6.23944 109.707 6.23944ZM112.925 35.4544H114.66V32.4888H118.509V35.4544H120.213V28.4189H118.509V31.1006H114.66V28.4189H112.925V35.4544ZM107.309 35.4544H109.013V29.8702H111.537V28.4189H104.754V29.8702H107.309V35.4544ZM99.5164 35.4544H105.227V33.9716H101.22V28.4189H99.5164V35.4544ZM80.4919 21.7934C77.9995 21.7934 77.1477 19.4903 77.1477 15.6728C77.1477 11.8553 77.9995 9.55215 80.4919 9.55215C82.9844 9.55215 83.8362 11.8553 83.8362 15.6728C83.8362 19.4903 82.9844 21.7934 80.4919 21.7934ZM80.4919 23.6864C85.1613 23.6549 87.7168 20.6576 87.7168 15.6728C87.7168 10.6879 85.1613 7.65917 80.4919 7.65917C75.8226 7.65917 73.2671 10.6879 73.2671 15.6728C73.2671 20.6576 75.8226 23.718 80.4919 23.6864ZM82.7635 35.4544H88.821V34.1294H84.4672V32.4257H88.3478V31.2583H84.4672V29.744H88.7264V28.4189H82.7635V35.4544ZM64.7171 23.6864C67.7774 23.6864 71.0901 22.1405 71.0901 18.8278C71.0901 16.3038 69.7335 14.7263 65.5374 13.8745C63.392 13.4328 62.13 12.9595 62.13 11.4767C62.13 10.2147 63.1396 9.5206 64.654 9.5206C65.8844 9.5206 66.6732 9.93075 67.178 10.9403C67.6197 11.8237 68.156 12.2023 69.1025 12.2023C69.8281 12.2023 70.5538 11.6344 70.5538 10.8141C70.5538 8.79496 68.1875 7.65917 64.7171 7.65917C61.6568 7.65917 58.7226 9.11046 58.7226 12.2023C58.7226 15.0102 60.4579 16.2407 63.9599 16.9663C66.4839 17.5027 67.6828 18.1021 67.6828 19.6481C67.6828 21.0047 66.3261 21.7934 64.7802 21.7934C63.9599 21.7934 62.5717 21.4779 61.9723 20.2475C61.5937 19.4903 61.0573 18.954 60.1424 18.954C59.3221 18.954 58.5649 19.5219 58.5649 20.4368C58.5649 22.6768 61.1835 23.6864 64.7171 23.6864ZM73.6456 35.4544H75.3493V32.4888H79.1984V35.4544H80.9021V28.4189H79.1984V31.1006H75.3493V28.4189H73.6456V35.4544ZM49.8572 23.4971C51.2769 23.4971 51.5924 22.7084 51.5924 21.5726V15.2942C51.5924 11.9499 53.0437 11.035 55.7885 11.035C56.5773 11.035 57.2714 10.5302 57.2714 9.5837C57.2714 8.51101 56.6404 7.81692 55.3468 7.81692C54.0533 7.81692 52.255 9.11046 51.2138 11.666L51.624 11.4767V10.8457C51.624 9.29976 51.1507 7.78537 49.6048 7.78537C48.5321 7.78537 47.9957 8.25862 47.9957 9.3944V21.5726C47.9957 22.7084 48.4374 23.4971 49.8572 23.4971ZM38.9725 23.6864C41.4334 23.6864 43.6734 22.4875 44.7777 20.9416C45.598 19.7743 44.967 18.9224 44.0205 18.9224C43.3579 18.9224 43.0424 19.5219 42.6008 20.0266C41.7805 20.9416 40.6762 21.5095 39.288 21.5095C36.2908 21.5095 35.3443 18.9855 35.3443 16.0514L35.3128 14.5686C35.3128 11.7606 36.2593 9.61525 38.6255 9.61525C40.6131 9.61525 41.5596 11.382 41.5596 13.4643C41.5596 13.9691 41.4019 14.0953 40.8655 14.0953H34.9342L34.808 15.9252H43.3264C44.5568 15.9252 45.3456 15.3888 45.3456 14.1584C45.3456 9.61525 42.3168 7.69072 38.5939 7.69072C34.2085 7.69072 31.4953 10.9719 31.4953 15.7359C31.4953 20.4999 33.6722 23.6864 38.9725 23.6864ZM21.9673 21.9512C19.7903 21.9512 18.7807 20.3421 18.7807 17.9444V13.7167C18.7807 11.3189 19.7903 9.74145 21.9673 9.74145C24.1442 9.74145 25.4693 11.9184 25.4062 15.8305C25.4693 19.7427 24.1757 21.9512 21.9673 21.9512ZM1.807 17.2503C2.6904 16.4931 4.11013 15.8621 6.00311 15.8621C7.89609 15.8621 9.31583 16.4931 10.1992 17.2503C11.2404 18.1337 12.4077 17.0925 11.8714 15.9883C10.8933 13.9691 8.84258 12.5178 6.00311 12.5178C3.16364 12.5178 1.11291 13.9691 0.13487 15.9883C-0.401474 17.0925 0.765864 18.1337 1.807 17.2503ZM16.9193 31.1952C18.339 31.1952 18.7807 30.4065 18.7807 29.2707V21.7619L17.9604 22.803C18.97 23.3709 20.2636 23.6864 21.9357 23.6864C26.7628 23.6864 29.2552 20.1844 29.2552 15.4519C29.2552 10.0569 25.9425 7.65917 22.0304 7.65917C17.4241 7.65917 15.0579 10.751 15.0579 14.6948V29.2707C15.0579 30.4065 15.4996 31.1952 16.9193 31.1952ZM116.553 21.5726C116.553 22.7084 116.995 23.4971 118.415 23.4971C119.834 23.4971 120.276 22.7084 120.276 21.5726V6.42873C120.276 4.40955 120.812 2.70587 122.642 2.70587C123.305 2.70587 123.904 3.05292 124.22 3.43151C124.598 3.87321 124.914 4.18871 125.64 4.18871C126.46 4.18871 127.122 3.62081 127.122 2.80052C127.122 1.15994 125.324 0.592041 123.463 0.592041C119.172 0.592041 116.553 4.12561 116.616 8.82651L116.553 9.74145V21.5726Z" fill="#003C44"/>
<path d="M143.632 10.5761L142.519 8.01611H142.909L143.75 10.0231L144.595 8.01611H144.982L143.869 10.5761H143.632ZM142.453 10.5761V8.01611H142.825V10.5761H142.453ZM144.679 10.5761V8.01611H145.051V10.5761H144.679ZM140.811 10.5761V8.20046H141.183V10.5761H140.811ZM140.032 8.35003V8.01611H141.962V8.35003H140.032Z" fill="#003C44"/>
</svg>
