<svg width="283" height="114" xmlns="http://www.w3.org/2000/svg" viewBox="0 0 1000 250" xml:space="preserve">
  <path d="M828.8 196.7v48.5H817v-20.4h-26.5v20.4h-12v-48.5h12v18.5H817v-18.5zm-106.6 0v10h17.6v38.5h11.7v-38.5h17.4v-10zM697.8 235v-38.3h-11.7v48.5h39.4V235zm-20.4 10.2h-12.8l-3.4-9.1h-24.9l-3.4 9.1h-12.8l19.6-48.5H658zM658.1 228l-9.4-25.2-9.4 25.2zm-75.8 8v-11.8h26.8v-8h-26.8v-10.4h29.4v-9.1h-41.1v48.5h41.8V236zM546 196.7v18.5h-26.5v-18.5h-11.7v48.5h11.7v-20.4H546v20.4h11.7v-48.5zM940.8 54.4c-9.8 0-12.8 5.4-12.8 13.3v54.8c0 12-10.9 22.6-22.8 22.6-12 0-16.3-8.5-16.3-20V67.7c0-7.8-3.1-13.3-12.8-13.3-9.8 0-12.8 5.4-12.8 13.3v61.5c0 21.8 10.4 34.2 31.8 33.9 14.3-.2 24.7-5.6 33.5-16.5v30.8c0 16.5-9.1 24.4-22.6 24.4-8.3 0-13.6-4.1-18.5-11.3-2-2.9-5-5.2-9.6-5.2-5.4 0-9.6 3.9-9.6 9.6 0 11.3 11.5 21.1 36.3 21.1 30 0 49.2-17.8 49.2-52.4V67.7c-.2-7.8-3.2-13.3-13-13.3M851.2 4.8c-27.8 0-45.4 21.5-47.1 51.1h-9.9c-4.8 0-8.9 2.2-8.9 7.2s4.1 7.2 8.9 7.2h9.4v79.2c0 7.8 3 13.3 12.8 13.3s12.8-5.4 12.8-13.3V70.3h12.6c5.6 0 9.4-3.1 9.4-7.6 0-4.6-3.3-6.7-9.1-6.7h-12.8V45.1c0-13.9 3.7-25.7 16.3-25.7 4.6 0 8.7 2.4 10.9 5 2.6 3.1 4.8 5.2 9.8 5.2 5.6 0 10.2-3.9 10.2-9.6-.1-11.3-12.5-15.2-25.3-15.2m-94.9 8.5c-9.4 0-15.4 6.5-15.4 15.2s6.1 15.2 15.4 15.2c9.4 0 15.4-6.5 15.4-15.2s-6-15.2-15.4-15.2m.5 41.1c-9.8 0-12.8 5.4-12.8 13.3v81.8c0 7.8 3 13.3 12.8 13.3s12.8-5.4 12.8-13.3V67.7c0-7.8-3.1-13.3-12.8-13.3m-72-.6c-14.4.2-25.8 5.7-34.9 16.7-.8-7.7-4.8-16.1-14.2-16.1-6.7 0-10.9 2.6-10.9 11.1v84c0 7.8 3.1 13.3 12.8 13.3 9.8 0 12.8-5.4 12.8-13.3v-55c0-12 12.2-22.6 24.1-22.6 12 0 16.3 8.5 16.3 20v57.6c0 7.8 3 13.3 12.8 13.3s12.8-5.4 12.8-13.3V87.7c.1-21.8-10.3-34.1-31.6-33.9m-80.1 55c0 34.4-17.6 55-49.8 55.2s-49.8-20.9-49.8-55.2c0-34.4 17.6-55.2 49.8-55.2s49.8 20.8 49.8 55.2m-26.7 0c0-26.3-5.9-42.2-23-42.2-17.2 0-23 15.9-23 42.2s5.9 42.2 23 42.2 23-15.9 23-42.2M451.8 96.4c-14.8-3-23.5-6.3-23.5-16.5 0-8.7 7-13.5 17.4-13.5 8.5 0 13.9 2.8 17.4 9.8 3.1 6.1 6.7 8.7 13.3 8.7 5 0 10-3.9 10-9.6 0-13.9-16.3-21.7-40.2-21.7-21.1 0-41.3 10-41.3 31.3 0 19.4 12 27.8 36.1 32.8 17.4 3.7 25.7 7.8 25.7 18.5 0 9.4-9.4 14.8-20 14.8-5.7 0-15.2-2.2-19.4-10.7-2.6-5.2-6.3-8.9-12.6-8.9-5.6 0-10.9 3.9-10.9 10.2 0 15.4 18.1 22.4 42.4 22.4 21.1 0 43.9-10.7 43.9-33.5 0-17.4-9.3-28.2-38.3-34.1m-70.2-41.8c-7.8 0-18.3 6.9-25.7 20.5-.1-10.5-3.4-20.7-13.9-20.7-7.4 0-11.1 3.3-11.1 11.1v84c0 7.8 3.1 13.3 12.8 13.3 9.8 0 11.9-5.4 11.9-13.3v-43.3c0-23 10-29.4 28.9-29.4 5.5 0 10.2-3.5 10.2-10 .1-7.4-4.2-12.2-13.1-12.2m-72.9 90.5c-7.6 10.7-23 18.9-40 18.9-36.6 0-51.6-22-51.6-54.8s18.7-55.5 48.9-55.5c25.7 0 46.5 13.3 46.5 44.6 0 8.5-5.4 12.2-13.9 12.2h-55v.9c0 20.2 6.5 37.6 27.2 37.6 9.6 0 17.2-3.9 22.8-10.2 3-3.5 5.2-7.6 9.8-7.6 6.6 0 11 5.9 5.3 13.9m-65.2-47.2h38.2c3.7 0 4.8-.9 4.8-4.4 0-14.3-6.5-26.5-20.2-26.5-15.4 0-22.1 13.2-22.8 30.9m-41.8 9.4c0 32.6-17.2 56.8-50.5 56.8-8.6 0-15.8-1.2-21.8-3.5v42c0 7.8-3 13.3-12.8 13.3s-12.8-5.4-12.8-13.3V102.1c0-27.2 16.3-48.5 48.1-48.5 27 0 49.8 16.5 49.8 53.7m-26.6 2.6c.4-27-8.7-42-23.7-42s-22 10.9-22 27.4v29.1c0 16.5 7 27.6 22 27.6 15.3.1 24.2-15.1 23.7-42.1M81.8 111C75.1 97 61 87.1 41.4 87.1S7.7 97 .9 111c-3.7 7.6 4.3 14.8 11.5 8.7 6.1-5.2 15.9-9.6 28.9-9.6s22.8 4.3 28.9 9.6c7.3 6.1 15.3-1.1 11.6-8.7m915.1-55L991 69.8 985.2 56h-3.1v17.6h2.6V60.8l5.6 12.8h1.6l5.6-12.8v12.8h2.6V56zm-31.5 0v2.3h5.4v15.4h2.6V58.3h5.4V56z" style="fill:#FFFFFFFF"/>
</svg>
