<svg width="17" height="17" viewBox="0 0 17 17" fill="none" xmlns="http://www.w3.org/2000/svg">
<path d="M8.40163 13.7199L3.93189 16.4188C3.80078 16.4834 3.67921 16.5095 3.56719 16.497C3.45516 16.4842 3.34631 16.4456 3.24064 16.3809C3.13477 16.3161 3.05424 16.2233 2.99904 16.1027C2.94385 15.9821 2.93913 15.8515 2.98488 15.7109L4.17349 10.6515L0.241116 7.24016C0.130524 7.15009 0.0574799 7.04237 0.0219838 6.917C-0.0135124 6.79143 -0.00602297 6.67109 0.0444513 6.55599C0.0949256 6.44068 0.16284 6.34671 0.248195 6.27407C0.333344 6.20164 0.448553 6.15271 0.59382 6.12726L5.78313 5.67515L7.80733 0.883482C7.86252 0.747653 7.94265 0.649783 8.0477 0.58987C8.15275 0.529958 8.27073 0.5 8.40163 0.5C8.53254 0.5 8.65052 0.529958 8.75557 0.58987C8.86062 0.649783 8.94074 0.747653 8.99594 0.883482L11.0201 5.67515L16.2094 6.12726C16.3547 6.15271 16.4699 6.20164 16.5551 6.27407C16.6404 6.34671 16.7083 6.44068 16.7588 6.55599C16.8093 6.67109 16.8168 6.79143 16.7813 6.917C16.7458 7.04237 16.6727 7.15009 16.5622 7.24016L12.6298 10.6515L13.8184 15.7109C13.8641 15.8515 13.8594 15.9821 13.8042 16.1027C13.749 16.2233 13.6685 16.3161 13.5626 16.3809C13.457 16.4456 13.3481 16.4842 13.2361 16.497C13.1241 16.5095 13.0025 16.4834 12.8714 16.4188L8.40163 13.7199Z" fill="#003C44"/>
</svg>
