<svg width="28" height="28" viewBox="0 0 28 28" fill="none" xmlns="http://www.w3.org/2000/svg">
<rect width="28" height="28" rx="6" fill="#003C44"/>
<path d="M14.0025 21C13.0346 21 12.1245 20.8163 11.2723 20.4489C10.4203 20.0816 9.67906 19.583 9.04867 18.9533C8.41828 18.3235 7.91927 17.583 7.55164 16.7316C7.18388 15.8803 7 14.9706 7 14.0025C7 13.0346 7.18375 12.1245 7.55125 11.2723C7.91875 10.4203 8.4175 9.67906 9.0475 9.04867C9.6775 8.41828 10.4183 7.91927 11.27 7.55164C12.1217 7.18388 13.0317 7 14 7C14.6721 7 15.3205 7.09372 15.9452 7.28117C16.5699 7.46861 17.1645 7.73837 17.7289 8.09044C17.8336 8.15422 17.9026 8.23997 17.9359 8.34769C17.9694 8.45542 17.9512 8.5551 17.8815 8.64675C17.8116 8.73853 17.7196 8.79291 17.6054 8.80989C17.4913 8.82674 17.3854 8.80328 17.2877 8.7395C16.793 8.42541 16.2672 8.18663 15.7103 8.02317C15.1534 7.85957 14.5833 7.77778 14 7.77778C12.2759 7.77778 10.8079 8.3838 9.59583 9.59583C8.3838 10.8079 7.77778 12.2759 7.77778 14C7.77778 15.7241 8.3838 17.1921 9.59583 18.4042C10.8079 19.6162 12.2759 20.2222 14 20.2222C15.7241 20.2222 17.1921 19.6162 18.4042 18.4042C19.6162 17.1921 20.2222 15.7241 20.2222 14C20.2222 13.8027 20.214 13.6115 20.1975 13.4264C20.1811 13.2414 20.1514 13.0522 20.1085 12.8588C20.0825 12.7478 20.0973 12.6418 20.1526 12.5407C20.208 12.4396 20.2919 12.3766 20.4044 12.3517C20.5103 12.3268 20.6066 12.3462 20.6934 12.41C20.7801 12.4738 20.8364 12.5596 20.8623 12.6673C20.9082 12.8787 20.9426 13.0946 20.9656 13.315C20.9885 13.5355 21 13.7638 21 14C21 14.9683 20.8163 15.8783 20.4489 16.73C20.0816 17.5817 19.583 18.3225 18.9533 18.9525C18.3235 19.5825 17.583 20.0813 16.7316 20.4488C15.8803 20.8163 14.9706 21 14.0025 21ZM12.8812 15.9384L20.1744 8.64072C20.2471 8.568 20.3356 8.5284 20.4398 8.52192C20.544 8.51544 20.6401 8.55614 20.728 8.64403C20.8086 8.72466 20.8489 8.81533 20.8489 8.91606C20.8489 9.01678 20.8076 9.10849 20.7249 9.19119L13.321 16.5995C13.1953 16.7251 13.0486 16.7879 12.8812 16.7879C12.7137 16.7879 12.5671 16.7251 12.4415 16.5995L10.3894 14.5474C10.3165 14.4746 10.2776 14.3854 10.2727 14.2796C10.2676 14.174 10.3065 14.0798 10.3894 13.9971C10.4721 13.9143 10.5638 13.8728 10.6645 13.8728C10.7652 13.8728 10.857 13.9143 10.9398 13.9971L12.8812 15.9384Z" fill="#E8EAED"/>
</svg>
