<svg width="29" height="28" viewBox="0 0 29 28" fill="none" xmlns="http://www.w3.org/2000/svg">
<path d="M7.65031 9.95164C5.85248 12.2625 5.88292 16.3712 8.18074 18.406C10.7916 20.7169 14.4634 20.6929 16.7742 18.5669C19.546 16.019 19.3851 11.7756 16.9373 9.37338C14.4764 6.95816 10.0764 6.83208 7.65031 9.95164Z" fill="#FCC11A"/>
<path d="M10.5393 9.15943C9.82844 8.84421 9.05018 9.70073 8.71105 10.2877C8.37192 10.8746 8.0567 12.0268 8.77844 12.3203C9.50018 12.6138 10.0197 12.1181 10.5393 11.2594C11.0589 10.4007 11.3524 9.5203 10.5393 9.15943Z" fill="#FEE269"/>
<path d="M12.3915 5.93593C12.2198 6.25984 12.2785 6.5055 12.6198 6.58811C12.9611 6.66854 15.0959 7.01637 15.2741 7.02724C15.535 7.04245 15.6328 6.84898 15.6002 6.62071C15.5676 6.39245 15.0459 3.19898 14.998 2.90767C14.9502 2.61637 14.6394 2.32071 14.3459 2.71202C14.0524 3.10115 12.522 5.69245 12.3915 5.93593ZM17.5741 8.13593C17.2524 8.27506 17.285 8.47941 17.4915 8.71854C17.6981 8.95767 19.135 10.7011 19.2611 10.8185C19.3894 10.9359 19.5872 10.9468 19.7263 10.7338C19.8654 10.5207 21.5785 7.46637 21.7067 7.27289C21.9176 6.9555 21.7394 6.66419 21.3763 6.80115C21.1024 6.90767 17.7763 8.04897 17.5741 8.13593ZM17.7828 18.9642C18.0415 18.8251 18.272 18.9316 18.3372 19.2251C18.4024 19.5185 19.1198 22.5142 19.2328 23.0685C19.2894 23.3468 18.972 23.5729 18.7111 23.4098C18.4502 23.2468 15.6198 21.2729 15.4372 21.1142C15.1763 20.8859 15.3567 20.649 15.485 20.5272C15.7459 20.2838 17.5372 19.0946 17.7828 18.9642ZM9.90022 20.6098C9.57196 20.5794 9.47631 20.8707 9.52631 21.1316C9.57414 21.3925 10.0633 24.6968 10.0959 24.9425C10.1437 25.3011 10.5198 25.4468 10.7633 25.0881C11.0067 24.7294 12.6807 22.049 12.8154 21.799C13.0589 21.3425 12.8807 21.2446 12.6372 21.1316C12.3915 21.0164 10.2415 20.6425 9.90022 20.6098ZM5.20892 16.8142C5.43718 16.4403 5.73066 16.5381 5.94153 16.8946C6.08718 17.1403 7.30892 18.7838 7.42414 18.962C7.53718 19.1403 7.58718 19.4838 7.22849 19.5642C6.86979 19.6446 3.95457 20.412 3.49805 20.4925C3.04153 20.5729 2.78066 20.2164 3.07414 19.8251C3.24588 19.599 5.08066 17.0272 5.20892 16.8142ZM4.58935 13.9816C5.00675 14.1664 5.2024 14.099 5.28935 13.8033C5.4024 13.412 5.74588 11.6207 5.76109 11.2142C5.77196 10.949 5.66327 10.6925 5.25675 10.7577C4.85022 10.8229 1.91979 11.2294 1.54588 11.3598C1.11109 11.512 1.14153 11.9903 1.43283 12.1425C1.77196 12.3207 4.29805 13.8511 4.58935 13.9816ZM9.65457 7.14028C9.88935 6.95332 9.81762 6.68376 9.60675 6.53811C9.39588 6.39245 6.77848 4.49898 6.44805 4.24245C6.15457 4.01419 5.79588 4.0968 5.8937 4.61637C5.96327 4.99028 6.79805 8.26637 6.85457 8.49245C6.91979 8.75332 7.11544 8.88376 7.3437 8.72071C7.57196 8.55767 9.41109 7.33593 9.65457 7.14028Z" fill="#FFA722"/>
<path d="M24.8845 14.9985C24.8866 14.8572 25.3649 9.98112 21.0823 9.07894C16.9432 8.20503 15.8584 12.0833 15.8584 12.0833C15.8584 12.0833 14.391 11.9029 13.3149 12.7202C12.2388 13.5398 12.1779 14.8898 12.1779 14.8898C12.1779 14.8898 10.4475 14.8246 9.63229 15.7876C8.89534 16.6572 9.14099 17.442 9.14099 17.442L13.9171 18.6529L25.9888 18.3289L27.3736 17.4898C27.3736 17.4898 27.4519 16.392 26.7366 15.6963C25.7497 14.7398 24.8845 14.9985 24.8845 14.9985Z" fill="#E2EBEE"/>
<path d="M13.6738 16.8906C13.6738 16.8906 12.3499 17.4732 10.7108 17.3298C9.73689 17.245 9.11515 16.9558 9.11515 16.9558C9.11515 16.9558 8.94776 18.0819 9.83254 18.6363C10.4956 19.0515 11.1282 19.1145 12.3065 19.1102C13.4847 19.1058 24.2065 19.0841 24.9782 19.0754C25.7521 19.0667 26.4869 18.9298 26.863 18.5798C27.3369 18.1385 27.3717 17.4885 27.3717 17.4885C27.3717 17.4885 26.6282 17.7102 25.5934 17.5754C24.563 17.4406 23.963 16.9798 23.963 16.9798C23.963 16.9798 23.2217 17.6124 19.3891 17.6819C15.2543 17.758 13.6738 16.8906 13.6738 16.8906Z" fill="#BACDD2"/>
</svg>
