<svg width="29" height="28" viewBox="0 0 29 28" fill="none" xmlns="http://www.w3.org/2000/svg">
<path d="M6.68048 8.6129C5.63918 9.95203 5.65657 12.3303 6.98701 13.5086C8.49788 14.8455 10.624 14.8325 11.9609 13.602C13.5653 12.1259 13.4718 9.66942 12.0544 8.28029C10.6305 6.88029 8.08483 6.80638 6.68048 8.6129Z" fill="#FCC11A"/>
<path d="M8.35202 8.15444C7.94115 7.97183 7.48897 8.46749 7.29332 8.80879C7.09767 9.14792 6.91506 9.81531 7.33245 9.98488C7.74984 10.1544 8.05202 9.86749 8.35202 9.36966C8.65419 8.87183 8.82376 8.36314 8.35202 8.15444Z" fill="#FEE269"/>
<path d="M9.424 6.28886C9.324 6.47582 9.35878 6.6193 9.55661 6.66495C9.75444 6.71277 10.9892 6.91277 11.0936 6.9193C11.2436 6.92799 11.3001 6.81495 11.2827 6.68451C11.2653 6.55408 10.9631 4.70408 10.9349 4.53451C10.9066 4.36495 10.7283 4.19538 10.5588 4.42147C10.3892 4.64756 9.50009 6.14756 9.424 6.28886ZM12.6218 7.5693C12.4283 7.63016 12.4327 7.74756 12.537 7.89973C12.6414 8.04973 13.3566 9.14321 13.424 9.2193C13.4892 9.29538 13.6023 9.31277 13.6979 9.19973C13.7914 9.08669 14.9697 7.43669 15.0566 7.33234C15.1979 7.16277 15.1131 6.98451 14.8957 7.04103C14.7283 7.08451 12.7436 7.53234 12.6218 7.5693ZM5.26748 12.5867C5.40009 12.3693 5.56965 12.4258 5.69139 12.6345C5.77617 12.7758 6.4827 13.728 6.55009 13.8323C6.61531 13.9367 6.64357 14.1345 6.43704 14.1802C6.23052 14.228 4.54139 14.6715 4.27835 14.7171C4.0153 14.7649 3.86313 14.5563 4.0327 14.3302C4.13052 14.1976 5.19139 12.7084 5.26748 12.5867ZM4.90878 10.9454C5.15009 11.0519 5.26313 11.0149 5.31313 10.841C5.37835 10.6149 5.57617 9.57799 5.58704 9.34103C5.59357 9.18669 5.53052 9.03886 5.29574 9.07799C5.06096 9.11495 3.36313 9.3519 3.14574 9.42582C2.89357 9.51277 2.91096 9.79104 3.08052 9.87799C3.27835 9.98451 4.73922 10.8693 4.90878 10.9454ZM7.84139 6.98669C7.97617 6.87799 7.93487 6.72364 7.81313 6.63886C7.69139 6.55408 6.17617 5.45843 5.98487 5.30843C5.81531 5.17582 5.60878 5.22364 5.66531 5.52582C5.70661 5.74321 6.18922 7.63886 6.22183 7.7693C6.25878 7.9193 6.37183 7.99538 6.50444 7.9019C6.63487 7.80625 7.70009 7.09973 7.84139 6.98669Z" fill="#FFA722"/>
<path d="M23.6827 16.7949C23.6522 16.6949 24.6653 9.42752 18.0631 8.35361C12.15 7.39274 10.8674 12.7014 10.8674 12.7014C10.8674 12.7014 8.62179 12.3253 7.00657 13.921C5.67396 15.2362 5.50005 16.7167 5.50005 16.7167C5.50005 16.7167 3.85005 16.3906 2.40657 17.4927C0.954397 18.6014 1.30874 19.7601 1.30874 19.7601L4.64788 22.0688L24.3327 21.4775L27.1283 20.7297C27.1283 20.7297 27.6087 19.0319 25.987 17.7297C24.6783 16.6797 23.6827 16.7949 23.6827 16.7949Z" fill="#E2EBEE"/>
<path d="M6.93454 19.7037C6.93454 19.7037 5.75845 20.4733 3.8628 20.2689C1.69106 20.0341 1.29324 19.2124 1.29324 19.2124C1.29324 19.2124 1.05628 20.8211 2.36498 21.9059C3.54758 22.8863 5.03672 22.6341 7.11063 22.6472C9.18454 22.6602 23.1171 22.6407 24.4345 22.6537C25.5128 22.6646 26.3845 22.3276 26.8454 21.4298C27.2824 20.582 27.1824 20.1211 27.1824 20.1211C27.1824 20.1211 26.3976 20.6081 24.6889 20.4081C23.2128 20.2363 22.4911 19.6407 22.4911 19.6407C22.4911 19.6407 20.615 20.6015 17.4824 20.5624C14.1998 20.5211 13.0845 19.3167 13.0845 19.3167C13.0845 19.3167 12.0193 20.3254 9.67802 20.2667C7.33671 20.2081 6.93454 19.7037 6.93454 19.7037Z" fill="#B9CED3"/>
</svg>
