<svg width="29" height="28" viewBox="0 0 29 28" fill="none" xmlns="http://www.w3.org/2000/svg">
<path d="M8.67437 6.42097C7.36785 8.10141 7.38959 11.0884 9.06132 12.5666C10.9592 14.2449 13.6287 14.2297 15.3092 12.684C17.3222 10.8318 17.207 7.74706 15.4265 6.00141C13.6352 4.24489 10.4374 4.15358 8.67437 6.42097Z" fill="#FCC11A"/>
<path d="M10.7744 5.84645C10.257 5.61602 9.69183 6.23993 9.444 6.66819C9.19835 7.09428 8.96791 7.93123 9.494 8.14645C10.0201 8.35949 10.3962 7.99863 10.7744 7.37471C11.1527 6.74863 11.3657 6.10949 10.7744 5.84645Z" fill="#FEE269"/>
<path d="M12.1198 3.50191C11.9937 3.73669 12.0372 3.91712 12.285 3.97582C12.5328 4.03452 14.085 4.28669 14.2154 4.29538C14.4045 4.30625 14.4763 4.16495 14.4524 3.99973C14.4285 3.83452 14.0502 1.51278 14.0132 1.29973C13.9785 1.08669 13.7524 0.873645 13.5393 1.15843C13.3263 1.44321 12.2154 3.32365 12.1198 3.50191ZM16.1328 5.11278C15.8893 5.18886 15.8958 5.33669 16.0263 5.52799C16.1567 5.71712 17.0567 7.09104 17.1393 7.18452C17.2219 7.28017 17.3632 7.30191 17.4828 7.1606C17.6024 7.0193 19.0806 4.94538 19.1872 4.81712C19.3654 4.60408 19.2589 4.37799 18.985 4.44973C18.7806 4.50408 16.2872 5.06495 16.1328 5.11278ZM6.89802 11.4106C7.06324 11.1389 7.27628 11.2084 7.43063 11.4693C7.53498 11.6476 8.42411 12.8432 8.50889 12.9736C8.5915 13.1041 8.62628 13.3519 8.36759 13.4128C8.10672 13.4715 5.98715 14.028 5.65672 14.0867C5.32628 14.1454 5.13498 13.8845 5.34802 13.6019C5.47193 13.4345 6.80454 11.5649 6.89802 11.4106ZM6.4502 9.34973C6.75237 9.48452 6.89585 9.43669 6.95889 9.2193C7.0415 8.93451 7.28933 7.63234 7.30237 7.33669C7.31106 7.14321 7.23063 6.95843 6.93498 7.00625C6.63933 7.05408 4.50889 7.34973 4.23498 7.44538C3.91976 7.55625 3.9415 7.90408 4.15237 8.01278C4.4002 8.14321 6.23715 9.25625 6.4502 9.34973ZM10.1306 4.37799C10.3002 4.24104 10.248 4.04756 10.0958 3.93886C9.9415 3.83234 8.03933 2.45625 7.79802 2.2693C7.58498 2.10408 7.32411 2.16278 7.39585 2.54104C7.44585 2.81278 8.05237 5.19538 8.09367 5.35843C8.1415 5.54756 8.2828 5.64321 8.44802 5.52365C8.61541 5.40843 9.95454 4.5193 10.1306 4.37799Z" fill="#FFA722"/>
<path d="M21.9201 14.2527C21.9201 14.2527 22.6896 9.15058 18.094 7.94188C13.1049 6.62884 11.9353 11.2614 11.9353 11.2614C11.9353 11.2614 10.4831 10.8658 9.14182 11.9441C8.09182 12.7875 7.91138 14.2745 7.91138 14.2745C7.91138 14.2745 5.86573 14.2049 4.98747 15.6158C4.15269 16.9571 4.98747 17.8375 4.98747 17.8375L17.0614 17.3527L24.494 17.3962C24.494 17.3962 25.0309 16.0006 23.9983 15.0332C22.9636 14.068 21.9201 14.2527 21.9201 14.2527Z" fill="#E2EBEE"/>
<path d="M13.6742 14.7588C13.6742 14.7588 14.5981 15.6827 17.0177 15.5284C19.4373 15.374 20.7112 14.5175 20.9981 14.3849C21.2851 14.2523 21.6133 13.9458 21.7242 14.1653C21.8351 14.3849 21.5916 15.0001 21.2633 15.4414C20.9329 15.8806 20.7481 16.148 20.6916 16.3436C20.6481 16.498 21.3742 16.7175 22.7373 16.7827C23.9025 16.8393 24.6373 16.6045 24.6373 16.6045C24.6373 16.6045 24.6699 17.3371 24.3851 17.9088C24.1199 18.4371 23.8438 18.6088 23.4047 18.698C23.1786 18.7436 18.9112 18.7414 15.2394 18.8284C11.5677 18.9153 6.77205 19.0697 5.959 18.8067C5.14596 18.5436 4.94596 18.0284 4.84161 17.8284C4.659 17.4849 4.61987 16.948 4.61987 16.948C4.61987 16.948 5.51987 17.4001 6.79596 17.224C8.07205 17.048 8.75248 16.3893 8.92857 16.3219C9.10466 16.2567 9.93944 16.674 11.259 16.3436C13.1025 15.8806 13.6742 14.7588 13.6742 14.7588Z" fill="#B9CED3"/>
<path d="M10.6244 19.8506C10.3374 19.7462 9.09175 20.6397 8.64393 21.831C7.98306 23.5897 10.3374 24.1767 10.8331 22.4832C11.0222 21.8397 11.02 19.9941 10.6244 19.8506ZM19.9309 21.1332C19.6765 21.0201 18.6657 21.7897 18.207 22.4354C17.7678 23.0527 17.3765 24.0962 18.4548 24.631C19.6309 25.2114 20.1657 23.9484 20.2157 23.031C20.2613 22.2006 20.1548 21.2332 19.9309 21.1332ZM14.8113 23.218C14.4918 23.1419 13.2657 24.1375 12.8265 25.0658C11.9461 26.9267 14.6504 27.5832 14.9852 25.7984C15.1983 24.6658 15.0722 23.2788 14.8113 23.218Z" fill="#4FC2F7"/>
<path d="M13.6636 24.663C13.4092 24.5608 12.9136 25.1847 12.9679 25.739C13.0244 26.2934 13.481 26.3434 13.6983 26.0369C13.9896 25.6303 13.9157 24.763 13.6636 24.663ZM9.41139 21.2956C9.17008 21.1825 8.75704 21.8434 8.76139 22.1847C8.77226 22.8803 9.2853 22.926 9.52443 22.5825C9.76356 22.2412 9.75269 21.4564 9.41139 21.2956ZM18.7918 22.6456C18.5049 22.5086 18.0114 23.1412 18.0483 23.5999C18.1136 24.3912 18.7418 24.3434 18.9527 23.9108C19.1636 23.4782 19.0505 22.7695 18.7918 22.6456Z" fill="#AFE6F8"/>
</svg>
