<svg width="101" height="100" viewBox="0 0 101 100" fill="none" xmlns="http://www.w3.org/2000/svg">
<path d="M29.4018 32.771C21.8159 42.521 21.9487 59.8413 31.644 68.4272C42.6518 78.1694 58.144 78.0678 67.8862 69.1069C79.5659 58.3569 78.894 40.4663 68.5659 30.3335C58.1831 20.146 39.6284 19.6147 29.4018 32.771Z" fill="#FCC11A"/>
<path d="M41.5787 29.4275C38.5787 28.0994 35.2975 31.7166 33.8678 34.1854C32.4381 36.6619 31.11 41.5135 34.1568 42.7557C37.2037 43.99 39.3912 41.8963 41.5865 38.2791C43.7662 34.6619 45.0084 30.951 41.5787 29.4275Z" fill="#FEE269"/>
<path d="M49.3934 15.8347C48.6669 17.1941 48.9091 18.2409 50.3544 18.5847C51.7997 18.9284 60.7919 20.3894 61.5497 20.4362C62.6512 20.5066 63.0575 19.6784 62.9247 18.7175C62.7841 17.7566 60.5887 4.29562 60.3856 3.06125C60.1825 1.82687 58.8778 0.592497 57.6356 2.24093C56.3934 3.88937 49.9403 14.8112 49.3934 15.8347ZM72.6747 25.1784C71.2606 25.6159 71.2997 26.4831 72.0575 27.5847C72.8153 28.6862 78.0341 36.6472 78.5106 37.2019C78.995 37.7487 79.8153 37.8894 80.5028 37.0612C81.1903 36.2409 89.7684 24.2097 90.3934 23.4597C91.4247 22.2253 90.8075 20.9206 89.2294 21.3269C88.0262 21.6472 73.5653 24.905 72.6747 25.1784ZM83.4559 48.3269C82.4403 47.7487 81.12 47.9128 80.7762 49.2175C80.4325 50.5222 78.9247 59.9987 78.7841 60.8269C78.6434 61.655 79.2684 62.4753 80.2919 62.2722C81.3153 62.0691 95.4872 59.9675 96.4325 59.7331C98.0809 59.3191 98.6278 57.6706 96.9169 56.4362C95.8075 55.6316 84.4169 48.8737 83.4559 48.3269ZM72.12 70.78C73.2137 70.1941 74.1825 70.6394 74.4559 71.8816C74.7294 73.1159 77.7528 85.7566 78.2372 88.0925C78.4794 89.2644 77.1356 90.2253 76.0419 89.5378C74.9403 88.8503 63.0028 80.53 62.2372 79.8503C61.1356 78.8894 61.9012 77.8894 62.4403 77.3816C63.5341 76.3425 71.0887 71.3347 72.12 70.78ZM38.8778 77.7175C37.495 77.5847 37.0887 78.8191 37.2997 79.9128C37.5028 81.0144 39.5653 94.9441 39.7059 95.9831C39.9091 97.4909 41.495 98.1159 42.5184 96.6003C43.5419 95.0847 50.6044 83.7878 51.1747 82.7253C52.2059 80.8034 51.4481 80.3894 50.4169 79.9128C49.3934 79.4362 40.3231 77.8581 38.8778 77.7175ZM19.1044 61.7175C20.0653 60.1394 21.2997 60.5534 22.1981 62.0612C22.8075 63.0925 27.9637 70.03 28.4481 70.78C28.9325 71.5378 29.1356 72.9753 27.6278 73.3191C26.1044 73.6706 13.8153 76.8972 11.8934 77.2409C9.97156 77.5847 8.87 76.0769 10.1044 74.4284C10.8231 73.4597 18.5575 62.6159 19.1044 61.7175ZM16.495 49.7644C18.2528 50.5456 19.0809 50.2644 19.4481 49.0066C19.9325 47.3581 21.37 39.8034 21.4403 38.0847C21.4872 36.9675 21.0262 35.8894 19.3075 36.1628C17.5887 36.4362 5.22937 38.1628 3.65124 38.7097C1.81531 39.3503 1.94812 41.3659 3.16687 42.0066C4.61218 42.7644 15.2528 49.2175 16.495 49.7644ZM37.8544 20.9206C38.8466 20.1316 38.5419 18.9987 37.6512 18.3816C36.7606 17.7644 25.7294 9.78781 24.3309 8.69406C23.0966 7.73312 21.5809 8.07687 21.995 10.2722C22.2919 11.8503 25.8075 25.6628 26.0497 26.6159C26.3231 27.7175 27.1512 28.2644 28.1122 27.5769C29.0575 26.8972 36.8231 21.7487 37.8544 20.9206Z" fill="#FFA722"/>
</svg>
