<svg width="20" height="14" viewBox="0 0 20 14" fill="none" xmlns="http://www.w3.org/2000/svg">
<path d="M0.596191 11.9693C0.596191 11.5051 0.716358 11.106 0.956691 10.772C1.19702 10.4382 1.52002 10.1714 1.92569 9.97152C2.79319 9.55852 3.65444 9.22927 4.50944 8.98377C5.36461 8.73827 6.39352 8.61552 7.59619 8.61552C8.79869 8.61552 9.82753 8.73827 10.6827 8.98377C11.5379 9.22927 12.3991 9.55852 13.2664 9.97152C13.6721 10.1714 13.9951 10.4382 14.2354 10.772C14.4759 11.106 14.5962 11.5051 14.5962 11.9693V12.577C14.5962 12.832 14.4964 13.0689 14.2969 13.2875C14.0976 13.5062 13.8512 13.6155 13.5577 13.6155H1.63444C1.34094 13.6155 1.09452 13.5158 0.895191 13.3163C0.695858 13.1169 0.596191 12.8705 0.596191 12.577V11.9693ZM16.3729 13.6155C16.4409 13.4565 16.4951 13.2889 16.5354 13.1125C16.5759 12.9362 16.5962 12.7577 16.5962 12.577V11.923C16.5962 11.3435 16.4789 10.7965 16.2442 10.282C16.0097 9.76752 15.677 9.32611 15.2462 8.95777C15.7372 9.05777 16.2103 9.19652 16.6654 9.37402C17.1204 9.55169 17.5704 9.75136 18.0154 9.97302C18.4488 10.191 18.7885 10.4699 19.0347 10.8098C19.2807 11.1498 19.4037 11.5209 19.4037 11.923V12.577C19.4037 12.8705 19.304 13.1169 19.1047 13.3163C18.9054 13.5158 18.6589 13.6155 18.3654 13.6155H16.3729ZM7.59619 6.38452C6.77119 6.38452 6.06494 6.09077 5.47744 5.50327C4.88994 4.91577 4.59619 4.20952 4.59619 3.38452C4.59619 2.55952 4.88994 1.85327 5.47744 1.26577C6.06494 0.678272 6.77119 0.384521 7.59619 0.384521C8.42119 0.384521 9.12744 0.678272 9.71494 1.26577C10.3024 1.85327 10.5962 2.55952 10.5962 3.38452C10.5962 4.20952 10.3024 4.91577 9.71494 5.50327C9.12744 6.09077 8.42119 6.38452 7.59619 6.38452ZM14.8654 3.38452C14.8654 4.20952 14.5717 4.91577 13.9842 5.50327C13.3967 6.09077 12.6904 6.38452 11.8654 6.38452C11.8231 6.38452 11.7692 6.37977 11.7037 6.37027C11.6384 6.3606 11.5845 6.35002 11.5422 6.33852C11.881 5.92352 12.1414 5.46319 12.3232 4.95752C12.5052 4.45185 12.5962 3.92677 12.5962 3.38227C12.5962 2.83777 12.5009 2.31744 12.3104 1.82127C12.1201 1.3251 11.864 0.861604 11.5422 0.430771C11.596 0.411604 11.6499 0.399104 11.7037 0.393271C11.7575 0.387438 11.8114 0.384521 11.8654 0.384521C12.6904 0.384521 13.3967 0.678272 13.9842 1.26577C14.5717 1.85327 14.8654 2.55952 14.8654 3.38452Z" fill="#003C44"/>
</svg>
