<svg width="151" height="49" viewBox="0 0 151 49" fill="none" xmlns="http://www.w3.org/2000/svg">
<g clip-path="url(#clip0_75_10800)">
<path d="M153.904 46.7829C145.967 43.1047 138.804 40.9755 121.962 27.0367C88.2769 -0.839898 77.8231 3.22569 77.8231 3.22569C77.8231 3.22569 67.3692 -2.00163 31.9423 27.0367C18.0038 37.4907 9.29231 42.7176 0 43.879" stroke="url(#paint0_linear_75_10800)" stroke-width="2.5"/>
</g>
<g clip-path="url(#clip1_75_10800)">
<path d="M-2.32279 46.7761C5.61439 43.0979 12.7767 40.9687 29.6195 27.0299C63.3041 -0.846734 73.758 3.21886 73.758 3.21886C73.758 3.21886 84.2118 -2.00846 119.639 27.0299C133.577 37.4838 142.289 42.7108 151.581 43.8722" stroke="url(#paint1_linear_75_10800)" stroke-width="2.5"/>
</g>
<rect opacity="0.5" y="27.6182" width="151" height="1.16154" rx="0.580769" fill="#D2D2D2"/>
<g filter="url(#filter0_d_75_10800)">
<circle cx="51.1077" cy="12.5178" r="3.48462" fill="#FCC11A"/>
</g>
<defs>
<filter id="filter0_d_75_10800" x="44.1384" y="5.54859" width="13.9385" height="13.9385" filterUnits="userSpaceOnUse" color-interpolation-filters="sRGB">
<feFlood flood-opacity="0" result="BackgroundImageFix"/>
<feColorMatrix in="SourceAlpha" type="matrix" values="0 0 0 0 0 0 0 0 0 0 0 0 0 0 0 0 0 0 127 0" result="hardAlpha"/>
<feMorphology radius="1.16154" operator="dilate" in="SourceAlpha" result="effect1_dropShadow_75_10800"/>
<feOffset/>
<feGaussianBlur stdDeviation="1.16154"/>
<feComposite in2="hardAlpha" operator="out"/>
<feColorMatrix type="matrix" values="0 0 0 0 0.988235 0 0 0 0 0.756863 0 0 0 0 0.101961 0 0 0 1 0"/>
<feBlend mode="normal" in2="BackgroundImageFix" result="effect1_dropShadow_75_10800"/>
<feBlend mode="normal" in="SourceGraphic" in2="effect1_dropShadow_75_10800" result="shape"/>
</filter>
<linearGradient id="paint0_linear_75_10800" x1="0" y1="24.8211" x2="153.904" y2="24.8211" gradientUnits="userSpaceOnUse">
<stop offset="0.1" stop-color="#142851"/>
<stop offset="0.25" stop-color="#FCC11A"/>
<stop offset="0.5" stop-color="#FEE269"/>
<stop offset="0.75" stop-color="#FCC11A"/>
<stop offset="0.9" stop-color="#142851"/>
</linearGradient>
<linearGradient id="paint1_linear_75_10800" x1="151.581" y1="24.8143" x2="-2.3228" y2="24.8143" gradientUnits="userSpaceOnUse">
<stop offset="0.1" stop-color="#142851"/>
<stop offset="0.25" stop-color="#FCC11A"/>
<stop offset="0.5" stop-color="#FEE269"/>
<stop offset="0.75" stop-color="#FCC11A"/>
<stop offset="0.9" stop-color="#142851"/>
</linearGradient>
<clipPath id="clip0_75_10800">
<rect width="75.5" height="47.6231" fill="white" transform="matrix(-1 0 0 1 75.5 0.902344)"/>
</clipPath>
<clipPath id="clip1_75_10800">
<rect width="75.5" height="47.6231" fill="white" transform="translate(75.5 0.902344)"/>
</clipPath>
</defs>
</svg>
